<svg width="20" height="20" viewBox="0 0 20 20" fill="none" xmlns="http://www.w3.org/2000/svg">
<g clip-path="url(#clip0_3_113)">
<path d="M12.1599 16H10.5599H8.95995C8.95995 16 8.95995 15.04 8.95995 14.4C6.75995 14.88 6.15995 13.2 6.15995 13.2C5.75995 12.4 5.35995 12 5.35995 12C4.55995 11.52 5.35995 11.6 5.35995 11.6C6.15995 11.6 6.55995 12.4 6.55995 12.4C7.27995 13.6 8.51995 13.4 8.95995 13.2C8.95995 12.8 9.11995 12.2 9.35995 12C7.59995 11.8 6.15995 10.8 6.15995 8.8C6.15995 6.8 6.55995 6.4 6.95995 6C6.87995 5.8 6.55995 5.08 6.95995 4C6.95995 4 7.75995 4 8.55995 5.2C8.95995 4.8 10.1599 4.8 10.5599 4.8C10.9599 4.8 12.1599 4.8 12.5599 5.2C13.36 4 14.16 4 14.16 4C14.6 5.08 14.24 5.8 14.16 6C14.56 6.4 14.96 6.8 14.96 8.8C14.96 10.8 13.5199 11.8 11.7599 12C11.9999 12.2 12.1599 12.88 12.1599 13.2V16Z" fill="#282828"/>
<path d="M9.9999 0.399902C4.6799 0.399902 0.399902 4.6799 0.399902 9.9999C0.399902 15.3199 4.6799 19.5999 9.9999 19.5999C15.3199 19.5999 19.5999 15.3199 19.5999 9.9999C19.5999 4.6799 15.3199 0.399902 9.9999 0.399902ZM9.9999 17.5999C5.7999 17.5999 2.3999 14.1999 2.3999 9.9999C2.3999 5.7999 5.7999 2.3999 9.9999 2.3999C14.1999 2.3999 17.5999 5.7999 17.5999 9.9999C17.5999 14.1999 14.1999 17.5999 9.9999 17.5999Z" fill="#282828"/>
</g>
<defs>
<clipPath id="clip0_3_113">
<rect width="20" height="20" fill="white"/>
</clipPath>
</defs>
</svg>
