<svg width="20" height="20" viewBox="0 0 20 20" fill="none" xmlns="http://www.w3.org/2000/svg">
<g clip-path="url(#clip0_3_138)">
<path d="M14.7704 17.0802C14.6837 16.5658 14.2282 14.0584 13.1083 10.9823C15.8647 10.5412 18.2533 11.2978 18.4299 11.3556C18.244 12.5094 17.8234 13.6127 17.1939 14.5974C16.5645 15.5821 15.7396 16.4271 14.7704 17.0802ZM9.99878 18.5388C8.01234 18.5417 6.08756 17.8492 4.55835 16.5814C4.67167 16.6725 4.75055 16.7302 4.75055 16.7302C4.75055 16.7302 6.38701 13.1608 11.4519 11.3967C11.4697 11.3889 11.4897 11.3855 11.5085 11.3789C12.7106 14.5006 13.2061 17.1146 13.3328 17.8612C12.2787 18.3089 11.144 18.5394 9.99878 18.5388ZM1.45985 9.99911C1.45985 9.90801 1.46429 9.81914 1.46652 9.72915C1.61761 9.73249 5.83708 9.82914 10.2332 8.51269C10.4776 8.99039 10.7109 9.47919 10.9264 9.96467C10.8132 9.99516 10.7009 10.0292 10.5898 10.0669C5.9815 11.5555 3.64402 15.7004 3.64402 15.7004L3.64735 15.7048C2.23612 14.1398 1.45731 12.1064 1.45985 9.99911ZM6.35479 2.27816C7.5055 3.85572 8.56453 5.49816 9.52662 7.19735C5.42713 8.28606 1.86758 8.24384 1.64316 8.2394C1.91519 6.94955 2.48211 5.74019 3.29952 4.70598C4.11693 3.67178 5.16265 2.84082 6.35479 2.27816ZM7.95348 1.70825L7.95237 1.71158L7.92571 1.71603L7.95348 1.70825ZM15.638 3.59238C15.6169 3.6246 14.4015 5.47541 11.1775 6.68299C10.2289 4.95187 9.16325 3.28753 7.98792 1.70158C9.32135 1.37572 10.7139 1.37749 12.0465 1.70676C13.379 2.03603 14.6122 2.68299 15.6403 3.59238H15.638ZM18.5354 9.91357C18.4132 9.8869 15.5225 9.26478 12.5884 9.63361L12.404 9.1948C12.2258 8.77658 12.0365 8.36317 11.8363 7.955C15.2081 6.57745 16.5768 4.6 16.5935 4.57667C17.8332 6.0806 18.5188 7.96465 18.5354 9.91357ZM19.7953 7.98722C19.6626 7.34301 19.4669 6.71342 19.2109 6.10753C18.456 4.32146 17.1975 2.79368 15.5891 1.71047C15.0545 1.34849 14.4861 1.03931 13.8916 0.78729C12.6595 0.267686 11.3359 0 9.99878 0C8.66162 0 7.338 0.267686 6.10593 0.78729C4.32078 1.54385 2.79335 2.80188 1.70871 4.40892C0.592113 6.05913 -0.00315325 8.00665 3.07981e-05 9.99911C-0.00330434 11.3361 0.264267 12.6599 0.7866 13.8907C1.03768 14.4861 1.34653 15.0561 1.70871 15.5904C2.79323 17.1973 4.32072 18.4549 6.10593 19.2109C6.71109 19.4673 7.34047 19.6624 7.98459 19.7931C9.96665 20.2034 12.0267 20.0005 13.8905 19.2109C14.4853 18.9593 15.0542 18.6506 15.5891 18.2889C16.1202 17.93 16.6157 17.5223 17.069 17.0702C18.2407 15.9008 19.1032 14.4584 19.5789 12.8729C20.0546 11.2873 20.1297 9.60844 19.7953 7.98722Z" fill="#111827"/>
</g>
<defs>
<clipPath id="clip0_3_138">
<rect width="20" height="20" fill="white"/>
</clipPath>
</defs>
</svg>
